<svg width="49" height="49" viewBox="0 0 49 49" fill="none" xmlns="http://www.w3.org/2000/svg">
<path d="M29.7849 25.3028H47.578C48.3898 25.3028 49.0326 25.9793 48.9987 26.7912C48.7958 30.9857 47.6287 36.4488 44.0092 40.8802C39.6455 46.208 33.0154 48.8465 25.4719 48.8465C10.9938 48.8465 0 38.6138 0 24.4571C0 10.3004 11.3659 0 25.6918 0C32.6264 0 37.2776 2.28333 41.117 5.12482C42.876 6.44408 44.4659 7.88174 46.1234 9.92829C46.6308 10.5541 46.5294 11.4674 45.8866 11.9579L45.616 12.1609C44.9902 12.6514 44.0769 12.5161 43.6033 11.8734C42.3179 10.1313 40.7787 8.6936 39.6962 7.81409C36.6011 5.32778 31.7299 2.84149 25.5903 2.84149C12.9727 2.84149 3.36582 12.5161 3.36582 24.5924C3.36582 36.6687 12.6683 45.9881 25.3704 45.9881C33.7934 45.9881 39.8485 41.8612 42.5039 37.9542C44.0938 35.5862 45.1763 32.4911 45.5822 29.768C45.7175 28.9054 45.041 28.1443 44.1784 28.1443H29.7511C28.973 28.1443 28.3303 27.5015 28.3303 26.7235C28.3303 25.9455 28.9731 25.3028 29.7511 25.3028L29.7849 25.3028Z" fill="#878787"/>
</svg>
