<svg width="49" height="49" viewBox="0 0 49 49" fill="none" xmlns="http://www.w3.org/2000/svg">
<path d="M29.7849 23.5437H47.578C48.3898 23.5437 49.0326 22.8672 48.9987 22.0553C48.7958 17.8608 47.6287 12.3977 44.0092 7.96631C39.6455 2.63852 33.0154 0 25.4719 0C10.9938 0 0 10.2327 0 24.3894C0 38.5461 11.3659 48.8465 25.6918 48.8465C32.6264 48.8465 37.2776 46.5632 41.117 43.7217C42.876 42.4024 44.4659 40.9648 46.1234 38.9182C46.6309 38.2924 46.5294 37.3791 45.8866 36.8886L45.616 36.6856C44.9902 36.1951 44.0769 36.3304 43.6033 36.9731C42.3179 38.7152 40.7787 40.1529 39.6963 41.0324C36.6011 43.5187 31.7299 46.005 25.5903 46.005C12.9728 46.005 3.36583 36.3304 3.36583 24.2541C3.36583 12.1778 12.6683 2.85839 25.3704 2.85839C33.7934 2.85839 39.8485 6.98531 42.5039 10.8924C44.0938 13.2603 45.1763 16.3555 45.5822 19.0785C45.7175 19.9411 45.041 20.7023 44.1784 20.7023H29.7511C28.9731 20.7023 28.3303 21.345 28.3303 22.123C28.3303 22.901 28.9731 23.5437 29.7511 23.5437L29.7849 23.5437Z" fill="#878787"/>
</svg>
