<svg width="49" height="49" viewBox="0 0 49 49" fill="none" xmlns="http://www.w3.org/2000/svg">
<path d="M29.7848 25.3027H47.5779C48.3897 25.3027 49.0324 25.9792 48.9986 26.7911C48.7957 30.9857 47.6286 36.4487 44.0091 40.8801C39.6454 46.2079 33.0153 48.8464 25.4718 48.8464C10.9938 48.8464 0 38.6137 0 24.457C0 10.3004 11.3659 0 25.6917 0C32.6263 0 37.2775 2.28333 41.1169 5.12481C42.8759 6.44407 44.4658 7.88172 46.1233 9.92826C46.6307 10.5541 46.5292 11.4674 45.8865 11.9579L45.6159 12.1609C44.9901 12.6513 44.0768 12.516 43.6032 11.8733C42.3178 10.1312 40.7786 8.69357 39.6962 7.81407C36.601 5.32777 31.7298 2.84148 25.5902 2.84148C12.9727 2.84148 3.36581 12.516 3.36581 24.5923C3.36581 36.6686 12.6683 45.988 25.3704 45.988C33.7933 45.988 39.8484 41.8611 42.5038 37.9541C44.0937 35.5862 45.1762 32.491 45.5821 29.7679C45.7174 28.9053 45.0408 28.1442 44.1783 28.1442H29.751C28.973 28.1442 28.3303 27.5015 28.3303 26.7234C28.3303 25.9454 28.973 25.3027 29.751 25.3027L29.7848 25.3027Z" fill="#878787"/>
</svg>
