<svg width="120" height="25" viewBox="0 0 120 25" fill="none" xmlns="http://www.w3.org/2000/svg">
<path d="M77.3122 12.6586H86.2078C86.6137 12.6586 86.935 12.9968 86.9181 13.4027C86.8167 15.4998 86.2332 18.231 84.4236 20.4465C82.242 23.1101 78.9273 24.4292 75.156 24.4292C67.9177 24.4292 62.4214 19.3134 62.4214 12.2358C62.4214 5.15819 68.1038 0.00854492 75.2659 0.00854492C78.7328 0.00854492 81.0582 1.15009 82.9777 2.57068C83.8571 3.23024 84.6519 3.94899 85.4806 4.97216C85.7343 5.28502 85.6836 5.74164 85.3622 5.98687L85.2269 6.08834C84.9141 6.33356 84.4575 6.26591 84.2207 5.94459C83.5781 5.07363 82.8086 4.35488 82.2674 3.91517C80.72 2.67215 78.2847 1.42914 75.2152 1.42914C68.9071 1.42914 64.1041 6.26591 64.1041 12.3034C64.1041 18.3409 68.7549 23.0001 75.1052 23.0001C79.3163 23.0001 82.3435 20.9369 83.6711 18.9836C84.4659 17.7998 85.0071 16.2523 85.21 14.8909C85.2777 14.4597 84.9395 14.0792 84.5082 14.0792H77.2953C76.9063 14.0792 76.585 13.7578 76.585 13.3689C76.585 12.9799 76.9064 12.6586 77.2953 12.6586L77.3122 12.6586Z" fill="#878787"/>
<path d="M46.1015 12.6586H54.9971C55.403 12.6586 55.7244 12.9968 55.7074 13.4027C55.606 15.4998 55.0225 18.231 53.2129 20.4465C51.0313 23.1101 47.7166 24.4292 43.9453 24.4292C36.707 24.4292 31.2107 19.3134 31.2107 12.2358C31.2107 5.15819 36.8931 0.00854492 44.0552 0.00854492C47.5221 0.00854492 49.8475 1.15009 51.767 2.57068C52.6464 3.23024 53.4412 3.94899 54.2699 4.97216C54.5236 5.28502 54.4729 5.74164 54.1516 5.98687L54.0163 6.08834C53.7034 6.33356 53.2468 6.26591 53.01 5.94459C52.3674 5.07363 51.5979 4.35488 51.0567 3.91517C49.5093 2.67215 47.074 1.42914 44.0045 1.42914C37.6964 1.42914 32.8934 6.26591 32.8934 12.3034C32.8934 18.3409 37.5442 23.0001 43.8945 23.0001C48.1056 23.0001 51.1328 20.9369 52.4604 18.9836C53.2552 17.7998 53.7964 16.2523 53.9994 14.8909C54.067 14.4597 53.7288 14.0792 53.2975 14.0792H46.0846C45.6957 14.0792 45.3743 13.7578 45.3743 13.3689C45.3743 12.9799 45.6957 12.6586 46.0846 12.6586L46.1015 12.6586Z" fill="#878787"/>
<path d="M14.8908 11.7706H23.7864C24.1923 11.7706 24.5137 11.4324 24.4967 11.0265C24.3953 8.92943 23.8118 6.19817 22.0022 3.98273C19.8206 1.31912 16.5059 0 12.7346 0C5.49634 0 0 5.11582 0 12.1934C0 19.271 5.68237 24.4206 12.8445 24.4206C16.3114 24.4206 18.6368 23.2791 20.5563 21.8585C21.4357 21.1989 22.2306 20.4802 23.0592 19.457C23.3129 19.1442 23.2622 18.6875 22.9409 18.4423L22.8056 18.3408C22.4927 18.0956 22.0361 18.1633 21.7993 18.4846C21.1567 19.3556 20.3872 20.0743 19.846 20.514C18.2986 21.757 15.8633 23 12.7938 23C6.48569 23 1.68274 18.1633 1.68274 12.1258C1.68274 6.08825 6.33348 1.42904 12.6839 1.42904C16.8949 1.42904 19.9221 3.49228 21.2497 5.4456C22.0445 6.62942 22.5857 8.17685 22.7887 9.53825C22.8563 9.9695 22.5181 10.35 22.0868 10.35H14.8739C14.485 10.35 14.1637 10.6713 14.1637 11.0603C14.1637 11.4493 14.485 11.7706 14.8739 11.7706L14.8908 11.7706Z" fill="#878787"/>
<path d="M119.254 12.8784C118.873 12.8784 118.56 13.149 118.526 13.4957C117.994 18.9328 113.317 22.8141 107.551 22.8141C101.784 22.8141 96.9976 18.8652 96.4057 13.4957C96.3719 13.149 96.059 12.8869 95.6785 12.8869H95.6616C95.2303 12.8869 94.8921 13.2251 94.9259 13.6141C95.5601 19.7362 100.676 24.4123 107.474 24.4123C114.273 24.4123 119.423 19.8207 119.998 13.6056C120.031 13.2167 119.693 12.8869 119.262 12.8869H119.254L119.254 12.8784Z" fill="#878787"/>
</svg>
